<svg xmlns="http://www.w3.org/2000/svg" viewBox="0 0 900 520">
  <defs>
    <radialGradient id="ball" cx="45%" cy="35%" r="65%">
      <stop offset="0" stop-color="#ffb24a"/>
      <stop offset="0.6" stop-color="#f47a19"/>
      <stop offset="1" stop-color="#aa3a08"/>
    </radialGradient>
    <filter id="glow"><feGaussianBlur stdDeviation="8" result="b"/><feMerge><feMergeNode in="b"/><feMergeNode in="SourceGraphic"/></feMerge></filter>
    <linearGradient id="shoe" x1="0" x2="1"><stop offset="0" stop-color="#05060c"/><stop offset="1" stop-color="#1d1431"/></linearGradient>
  </defs>
  <rect width="900" height="520" fill="none"/>
  <circle cx="575" cy="230" r="158" fill="url(#ball)" opacity=".94"/>
  <path d="M422 232h306M575 72c-55 72-76 137-63 316M705 124c-90 54-139 117-168 261M451 130c75 49 130 119 163 251" fill="none" stroke="#120b10" stroke-width="15" opacity=".8"/>
  <text x="512" y="270" font-family="Arial Black,Impact,sans-serif" font-size="82" fill="#050505" opacity=".86">R32</text>
  <g transform="translate(118 280) rotate(-13)" filter="url(#glow)">
    <path d="M24 70c82 18 185 24 284-5 17 11 25 25 19 39-86 29-204 42-336 23-9-19 2-41 33-57z" fill="url(#shoe)" stroke="#7b46ff" stroke-width="7"/>
    <path d="M86 44c49-30 111-22 169-5 9 15 0 31-15 42-60 4-119 1-178-11-7-10 0-18 24-26z" fill="#111827" stroke="#f6f7ff" stroke-width="4" opacity=".95"/>
    <path d="M105 79c44 9 91 12 144 7" stroke="#a78bfa" stroke-width="8" fill="none"/>
  </g>
  <g transform="translate(210 120) rotate(10) scale(.88)" opacity=".95">
    <path d="M22 74c80 16 172 20 272-10 17 11 24 27 17 40-90 31-200 38-319 23-10-20 1-43 30-53z" fill="url(#shoe)" stroke="#7b46ff" stroke-width="7"/>
    <path d="M82 43c50-32 108-20 166-4 7 15-2 31-16 42-56 5-112 1-171-10-9-11-3-20 21-28z" fill="#10111b" stroke="#f6f7ff" stroke-width="4"/>
    <path d="M96 80c48 8 96 9 142 5" stroke="#f97316" stroke-width="8" fill="none"/>
  </g>
</svg>
