<svg xmlns="http://www.w3.org/2000/svg" width="2560" height="1440" viewBox="0 0 2560 1440">
  <defs>
    <linearGradient id="bg" x1="0" y1="0" x2="1" y2="1">
      <stop offset="0" stop-color="#090909"/>
      <stop offset="0.48" stop-color="#08101b"/>
      <stop offset="1" stop-color="#030407"/>
    </linearGradient>
    <radialGradient id="purple" cx="0" cy="0" r="1">
      <stop offset="0" stop-color="#7A2FFF" stop-opacity="0.72"/>
      <stop offset="0.38" stop-color="#7A2FFF" stop-opacity="0.18"/>
      <stop offset="1" stop-color="#7A2FFF" stop-opacity="0"/>
    </radialGradient>
    <radialGradient id="orange" cx="1" cy="0" r="1">
      <stop offset="0" stop-color="#F47A20" stop-opacity="0.56"/>
      <stop offset="0.34" stop-color="#F47A20" stop-opacity="0.14"/>
      <stop offset="1" stop-color="#F47A20" stop-opacity="0"/>
    </radialGradient>
    <filter id="blur"><feGaussianBlur stdDeviation="42"/></filter>
  </defs>
  <rect width="2560" height="1440" fill="url(#bg)"/>
  <g opacity="0.055" fill="none" stroke="#ffffff" stroke-width="4">
    <path d="M120 96h1050v1248H120z"/>
    <path d="M120 720h1050"/>
    <circle cx="645" cy="720" r="138"/>
    <path d="M382 96v250h526V96M382 1344v-250h526v250"/>
    <path d="M508 96a137 137 0 0 0 274 0M508 1344a137 137 0 0 1 274 0"/>
  </g>
  <g filter="url(#blur)">
    <ellipse cx="90" cy="64" rx="430" ry="270" fill="url(#purple)"/>
    <ellipse cx="2460" cy="88" rx="360" ry="240" fill="url(#orange)" opacity="0.55"/>
    <ellipse cx="70" cy="1370" rx="300" ry="210" fill="url(#orange)" opacity="0.55"/>
  </g>
</svg>